# xmcd
#
# Track frame offsets:
#  151
#  17025
#  30298
#  47610
#  63613
#  76430
#  88309
#  107321
#  121884
#  136679
#  153098
#  171111
#  186826
#  200969
#
# Disc length: 2960 seconds
#
# Revision: 0
# Processed by: cddbd v1.5.1PL2 Copyright (c) Steve Scherf et al.
# Submitted via: Collectorz.com_Music_Collector 6.9
#
DISCID=af0b8e0e
DTITLE=Paul King - Last Supper? Disk 1
DYEAR=2005
DGENRE=King and Earl
TTITLE0=Busker's Dawn
TTITLE1=Lady With The Red Red Hair
TTITLE2=Sad Sad Song
TTITLE3=If You See My Baby
TTITLE4=Now You Know
TTITLE5=Round and Round
TTITLE6=Station Called Love
TTITLE7=Camilla La 'more
TTITLE8=You Are The One
TTITLE9=Never Be Sad
TTITLE10=Nobody Loves Me
TTITLE11=Saturday Matinee
TTITLE12=No One To Phone
TTITLE13=Wind Of Change
EXTD=
EXTT0=
EXTT1=
EXTT2=
EXTT3=
EXTT4=
EXTT5=
EXTT6=
EXTT7=
EXTT8=
EXTT9=
EXTT10=
EXTT11=
EXTT12=
EXTT13=
PLAYORDER=
